<?xml version="1.0" encoding="utf-8"?>
<!-- Generator: Adobe Illustrator 16.0.0, SVG Export Plug-In . SVG Version: 6.00 Build 0)  -->
<!DOCTYPE svg PUBLIC "-//W3C//DTD SVG 1.1//EN" "http://www.w3.org/Graphics/SVG/1.1/DTD/svg11.dtd">
<svg version="1.1" id="Слой_1" xmlns="http://www.w3.org/2000/svg" xmlns:xlink="http://www.w3.org/1999/xlink" x="0px" y="0px"
	 width="17.542px" height="25.083px" viewBox="0 0 17.542 25.083" enable-background="new 0 0 17.542 25.083" xml:space="preserve">
<g>
	<g>
		<path fill="#C42016" d="M14.899,2.674c-3.385-3.383-8.872-3.383-12.257,0c-3.05,3.05-3.394,8.793-0.804,12.243l6.934,10.012
			l6.933-10.012C18.292,11.467,17.95,5.724,14.899,2.674L14.899,2.674z M8.856,11.579c-1.582,0-2.862-1.281-2.862-2.861
			c0-1.579,1.28-2.861,2.862-2.861c1.58,0,2.86,1.282,2.86,2.861C11.716,10.298,10.436,11.579,8.856,11.579L8.856,11.579z
			 M8.856,11.579"/>
	</g>
</g>
</svg>
