<?xml version="1.0" encoding="utf-8"?>
<!-- Generator: Adobe Illustrator 16.0.0, SVG Export Plug-In . SVG Version: 6.00 Build 0)  -->
<!DOCTYPE svg PUBLIC "-//W3C//DTD SVG 1.1//EN" "http://www.w3.org/Graphics/SVG/1.1/DTD/svg11.dtd">
<svg version="1.1" id="Слой_1" xmlns="http://www.w3.org/2000/svg" xmlns:xlink="http://www.w3.org/1999/xlink" x="0px" y="0px"
	 width="25.375px" height="25.344px" viewBox="0 0 25.375 25.344" enable-background="new 0 0 25.375 25.344" xml:space="preserve">
<g>
	<path fill="#302980" d="M25.171,19.574c-0.071-0.215-0.522-0.53-1.354-0.945c-0.225-0.13-0.546-0.309-0.961-0.534
		c-0.418-0.227-0.795-0.435-1.133-0.625c-0.34-0.189-0.657-0.374-0.954-0.552c-0.048-0.036-0.196-0.14-0.446-0.313
		c-0.249-0.172-0.461-0.299-0.632-0.383c-0.173-0.083-0.342-0.125-0.509-0.125c-0.237,0-0.534,0.169-0.891,0.508
		c-0.355,0.339-0.684,0.707-0.98,1.105c-0.297,0.399-0.612,0.767-0.944,1.104c-0.333,0.34-0.607,0.51-0.82,0.51
		c-0.106,0-0.241-0.03-0.401-0.09s-0.283-0.109-0.366-0.15c-0.082-0.043-0.226-0.126-0.427-0.252
		c-0.202-0.124-0.315-0.191-0.34-0.204c-1.627-0.902-3.024-1.937-4.188-3.102c-1.165-1.164-2.199-2.562-3.102-4.188
		c-0.012-0.025-0.081-0.138-0.205-0.34c-0.125-0.202-0.208-0.344-0.25-0.429c-0.042-0.083-0.092-0.204-0.152-0.364
		c-0.058-0.16-0.088-0.294-0.088-0.401c0-0.213,0.169-0.486,0.508-0.82C6.873,8.651,7.242,8.337,7.639,8.04
		c0.399-0.297,0.767-0.623,1.105-0.98c0.339-0.356,0.508-0.653,0.508-0.892c0-0.165-0.042-0.336-0.125-0.507
		c-0.083-0.174-0.21-0.384-0.383-0.634C8.572,4.778,8.468,4.63,8.432,4.582C8.255,4.284,8.07,3.968,7.88,3.629
		C7.689,3.29,7.482,2.911,7.255,2.495C7.031,2.081,6.852,1.76,6.722,1.534C6.305,0.702,5.99,0.251,5.776,0.179
		C5.693,0.143,5.568,0.125,5.402,0.125c-0.32,0-0.739,0.06-1.256,0.179C3.628,0.422,3.222,0.547,2.925,0.678
		C2.33,0.928,1.7,1.651,1.034,2.854C0.428,3.97,0.125,5.075,0.125,6.168c0,0.319,0.021,0.633,0.063,0.936
		C0.229,7.407,0.303,7.749,0.411,8.13c0.107,0.381,0.193,0.662,0.258,0.846C0.734,9.16,0.856,9.49,1.034,9.965
		c0.179,0.477,0.286,0.766,0.321,0.875c0.417,1.164,0.909,2.203,1.479,3.119c0.938,1.521,2.22,3.093,3.842,4.716
		c1.622,1.621,3.194,2.902,4.715,3.841c0.915,0.57,1.955,1.064,3.12,1.479c0.107,0.036,0.398,0.143,0.873,0.321
		s0.805,0.3,0.988,0.365c0.186,0.066,0.467,0.151,0.848,0.261c0.381,0.105,0.723,0.18,1.026,0.222
		c0.302,0.041,0.614,0.063,0.935,0.063c1.094,0,2.198-0.304,3.316-0.909c1.199-0.665,1.926-1.296,2.174-1.891
		c0.132-0.296,0.256-0.704,0.375-1.221s0.179-0.937,0.179-1.256C25.226,19.782,25.207,19.658,25.171,19.574L25.171,19.574z
		 M25.171,19.574"/>
</g>
</svg>
