<?xml version="1.0" encoding="utf-8"?>
<!-- Generator: Adobe Illustrator 16.0.0, SVG Export Plug-In . SVG Version: 6.00 Build 0)  -->
<!DOCTYPE svg PUBLIC "-//W3C//DTD SVG 1.1//EN" "http://www.w3.org/Graphics/SVG/1.1/DTD/svg11.dtd">
<svg version="1.1" id="Слой_1" xmlns="http://www.w3.org/2000/svg" xmlns:xlink="http://www.w3.org/1999/xlink" x="0px" y="0px"
	 width="24.797px" height="24.828px" viewBox="0 0 24.797 24.828" enable-background="new 0 0 24.797 24.828" xml:space="preserve">
<g>
	<path fill="#98BC37" d="M24.704,12.118c0,6.597-5.391,11.949-12.044,11.949c-2.113,0-4.093-0.539-5.82-1.489L0.172,24.7
		l2.172-6.415c-1.094-1.8-1.727-3.914-1.727-6.171c0-6.599,5.391-11.95,12.048-11.95C19.313,0.164,24.704,5.516,24.704,12.118
		L24.704,12.118z M12.66,2.071c-5.582,0-10.125,4.507-10.125,10.047c0,2.199,0.715,4.234,1.93,5.89l-1.266,3.731L7.09,20.5
		c1.602,1.051,3.516,1.664,5.57,1.664c5.583,0,10.126-4.507,10.126-10.046C22.786,6.578,18.243,2.071,12.66,2.071L12.66,2.071z
		 M18.743,14.868c-0.074-0.122-0.27-0.196-0.566-0.34c-0.293-0.149-1.746-0.856-2.016-0.953c-0.273-0.098-0.469-0.149-0.664,0.148
		c-0.195,0.293-0.762,0.948-0.938,1.147c-0.172,0.196-0.344,0.219-0.637,0.075c-0.297-0.149-1.25-0.457-2.375-1.453
		c-0.879-0.778-1.474-1.735-1.646-2.032c-0.171-0.293-0.015-0.449,0.129-0.593c0.133-0.133,0.297-0.344,0.446-0.517
		c0.148-0.172,0.195-0.293,0.293-0.487c0.097-0.196,0.05-0.368-0.024-0.513c-0.074-0.148-0.664-1.59-0.91-2.176
		S9.344,6.688,9.172,6.688S8.805,6.664,8.606,6.664c-0.196,0-0.516,0.071-0.786,0.368c-0.273,0.293-1.035,1-1.035,2.44
		c0,1.445,1.059,2.836,1.207,3.031c0.149,0.192,2.043,3.25,5.044,4.422c3.004,1.173,3.004,0.781,3.543,0.731
		c0.543-0.051,1.746-0.707,1.992-1.391C18.817,15.578,18.817,14.993,18.743,14.868L18.743,14.868z M18.743,14.868"/>
</g>
</svg>
